<?xml version="1.0" encoding="UTF-8"?>
<svg width="118px" height="118px" viewBox="0 0 118 118" version="1.1" xmlns="http://www.w3.org/2000/svg" xmlns:xlink="http://www.w3.org/1999/xlink">
    <!-- Generator: Sketch 41 (35326) - http://www.bohemiancoding.com/sketch -->
    <title>Page 1</title>
    <desc>Created with Sketch.</desc>
    <defs>
        <polygon id="path-1" points="117.4775 0.523 0 0.523 0 117.9997 117.4775 117.9997 117.4775 0.523"></polygon>
        <polygon id="path-3" points="0 118.477 117.478 118.477 117.478 1 0 1"></polygon>
    </defs>
    <g id="Page-1" stroke="none" stroke-width="1" fill="none" fill-rule="evenodd">
        <g id="Design" transform="translate(-386.000000, -1764.000000)">
            <g id="Comments-Section" transform="translate(250.000000, 1646.000000)">
                <g id="Comments" transform="translate(0.000000, 117.000000)">
                    <g id="Page-1" transform="translate(136.000000, 0.000000)">
                        <g id="Group-3" transform="translate(0.000000, 0.477000)">
                            <mask id="mask-2" fill="white">
                                <use xlink:href="#path-1"></use>
                            </mask>
                            <g id="Clip-2"></g>
                            <path d="M117.4775,59.2607 C117.4775,91.7017 91.1795,117.9997 58.7385,117.9997 C26.2985,117.9997 -0.0005,91.7017 -0.0005,59.2607 C-0.0005,26.8217 26.2985,0.5227 58.7385,0.5227 C91.1795,0.5227 117.4775,26.8217 117.4775,59.2607" id="Fill-1" fill="#FAAF3D" mask="url(#mask-2)"></path>
                        </g>
                        <mask id="mask-4" fill="white">
                            <use xlink:href="#path-3"></use>
                        </mask>
                        <g id="Clip-5"></g>
                        <polygon id="Fill-4" fill="#DDC7AD" mask="url(#mask-4)" points="54.357 82.31 68.616 82.31 68.616 72.245 54.357 72.245"></polygon>
                        <path d="M82.5776,80.1459 C79.4566,78.4179 68.6166,78.1749 68.6166,78.1749 C68.6166,78.1749 65.8376,80.9019 61.3046,80.9019 C56.7686,80.9019 54.3566,78.1749 54.3566,78.1749 C54.3566,78.1749 42.9736,78.3069 39.6576,80.1459 C39.2966,80.3459 30.0736,84.2129 30.0736,89.7249 L30.0736,94.4199 C30.0736,97.5459 33.2646,99.8799 37.7586,99.8799 L61.1166,99.8799 L84.4746,99.8799 C88.9696,99.8799 92.1596,97.5459 92.1596,94.4199 L92.1596,89.7249 C92.1596,84.3799 83.0496,80.4099 82.5776,80.1459" id="Fill-6" fill="#F05C42" mask="url(#mask-4)"></path>
                        <path d="M61.1216,80.7729 C61.1216,80.7729 61.1196,80.7759 61.1166,80.7779 L61.1266,80.7779 C61.1236,80.7759 61.1216,80.7729 61.1216,80.7729" id="Fill-7" fill="#DDC7AD" mask="url(#mask-4)"></path>
                        <path d="M67.8472,73.4252 C72.7732,70.5162 76.5512,64.7112 77.8932,58.7022 C77.5902,58.0472 77.2532,56.9672 76.8592,55.4502 C76.7882,55.8752 76.7472,56.2462 76.7572,56.5262 C76.8252,58.5382 75.1952,60.7392 75.1752,56.4702 C75.1592,52.7812 68.9512,44.1262 68.5612,43.8942 C66.5472,45.5252 61.3042,48.5572 57.3182,49.4702 C56.6412,49.6242 55.5002,49.5362 56.3092,48.8532 C57.0062,48.2652 57.3552,47.4922 57.6072,46.7132 C57.8952,45.8212 54.1292,49.0292 51.3602,50.4852 C50.6562,50.8532 49.1882,51.4862 50.2832,50.1812 C50.9462,49.3912 51.0042,48.8332 51.0492,48.2162 C47.1102,50.3682 47.1782,53.3022 47.1842,56.6572 C47.1902,59.5862 45.6002,60.4712 45.4142,57.8852 C45.1942,58.9132 44.9232,59.5672 44.6362,59.8522 C46.1772,65.4412 49.7862,70.7012 54.3972,73.4252 C56.4682,74.6492 58.7422,75.3622 61.1212,75.3622 C63.5022,75.3622 65.7762,74.6492 67.8472,73.4252" id="Fill-8" fill="#F2DBBC" mask="url(#mask-4)"></path>
                        <path d="M45.4146,57.8857 C45.6006,60.4707 47.1896,59.5857 47.1846,56.6577 C47.1786,53.3027 47.1096,50.3687 51.0486,48.2157 C51.0036,48.8327 50.9466,49.3907 50.2836,50.1817 C49.1886,51.4857 50.6556,50.8527 51.3596,50.4847 C54.1286,49.0297 57.8956,45.8207 57.6066,46.7127 C57.3556,47.4917 57.0066,48.2647 56.3096,48.8537 C55.5006,49.5357 56.6416,49.6247 57.3176,49.4697 C61.3046,48.5577 66.5476,45.5247 68.5616,43.8947 C68.9506,44.1267 75.1586,52.7817 75.1756,56.4697 C75.1946,60.7397 76.8256,58.5387 76.7576,56.5267 C76.7476,56.2457 76.7886,55.8757 76.8586,55.4507 C77.2536,56.9667 77.5896,58.0467 77.8936,58.7017 C78.6346,60.3217 79.1516,59.3727 79.7306,56.0317 C80.0766,54.0277 80.0156,48.9247 78.1316,44.3017 C77.1166,41.8127 75.6366,39.3997 73.6816,37.3997 C73.6326,37.5687 73.5856,37.7257 73.5416,37.8687 C72.9476,39.8677 71.2926,41.4087 68.5166,41.4087 L61.5076,41.4087 L54.5006,41.4087 C51.7236,41.4087 50.0676,39.8677 49.4706,37.8687 C49.3576,37.4877 49.2146,37.0067 49.0586,36.4777 C47.2286,37.9987 45.7906,39.8727 44.7736,41.9917 C42.6336,46.4627 42.6756,52.5957 42.8456,55.0107 C43.1236,58.9447 43.9216,60.5577 44.6366,59.8517 C44.9226,59.5677 45.1936,58.9137 45.4146,57.8857" id="Fill-9" fill="#674C3B" mask="url(#mask-4)"></path>
                        <path d="M74.585,38.1957 C74.585,39.2637 74.116,40.8787 73.543,41.7797 C73.543,41.7797 72.318,43.7077 61.411,43.7077 C50.505,43.7077 47.533,41.3477 47.533,41.3477 C46.695,40.6827 46.011,39.2637 46.011,38.1957 L46.011,29.3917 C46.011,28.3227 46.886,27.4487 47.955,27.4487 L72.642,27.4487 C73.71,27.4487 74.585,28.3227 74.585,29.3917 L74.585,38.1957 Z" id="Fill-10" fill="#052537" mask="url(#mask-4)"></path>
                        <path d="M34.334,24.5019 C33.32,24.8389 33.314,25.4009 34.324,25.7529 L58.834,34.2889 C59.843,34.6399 61.49,34.6249 62.491,34.2549 L84.11,26.2729 C85.113,25.9019 85.108,25.3109 84.099,24.9579 L61.045,16.9019 C60.037,16.5479 58.381,16.5349 57.366,16.8709 L34.334,24.5019 Z" id="Fill-11" fill="#102F41" mask="url(#mask-4)"></path>
                        <path d="M76.543,39.5375 C76.543,40.6055 76.103,41.4795 75.564,41.4795 C75.025,41.4795 74.585,40.6055 74.585,39.5375 L74.585,29.7905 L76.543,29.0665 L76.543,39.5375 Z" id="Fill-12" fill="#F05C42" mask="url(#mask-4)"></path>
                        <path d="M77.8301,42.0703 C77.8301,43.0743 76.9561,43.8943 75.8871,43.8943 L74.9991,43.8943 C73.9301,43.8943 73.0561,43.0743 73.0561,42.0703 C73.0561,41.0673 73.9301,40.2453 74.9991,40.2453 L75.8871,40.2453 C76.9561,40.2453 77.8301,41.0673 77.8301,42.0703" id="Fill-13" fill="#F05C42" mask="url(#mask-4)"></path>
                    </g>
                </g>
            </g>
        </g>
    </g>
</svg>