<?xml version="1.0"?><svg width="800" height="600" xmlns="http://www.w3.org/2000/svg">
 <title>white Cloud</title>
 <defs>
  <radialGradient id="svg_2" cx="0.5" cy="0.5" r="0.5">
   <stop offset="0" stop-color="#ffffff" stop-opacity="0"/>
   <stop offset="1" stop-color="#013b81" stop-opacity="0.5"/>
  </radialGradient>
 </defs>
 <metadata id="metadata3228">image/svg+xml</metadata>
 <g>
  <title>Layer 1</title>
  <path id="path5530" d="m243.231934,51.293999c-37.514282,0 -69.202957,23.923531 -79.062485,56.593758c-4.104477,-2.3209 -8.826416,-3.65625 -13.875,-3.65625c-15.612915,0 -28.28125,12.668335 -28.28125,28.28125c0,0.159027 -0.002632,0.310364 0,0.46875c-4.67691,-0.958191 -9.580566,-1.5 -14.65625,-1.5c-30.947037,0 -56.062489,19.018127 -56.0625,42.4375c0,23.419373 25.115463,42.4375 56.0625,42.4375c12.257294,0 23.582855,-3.00592 32.8125,-8.0625c5.512253,16.492157 21.067627,28.40625 39.406235,28.40625c12.426636,0 23.569397,-5.471313 31.1875,-14.125c7.390625,3.865997 16.081726,6.09375 25.375,6.09375c12.64447,0 24.183685,-4.113098 32.843719,-10.875c11.669556,12.111359 28.828857,19.78125 47.96875,19.78125c23.480591,0 44.002136,-11.553284 55.03125,-28.6875c1.660339,0.243317 3.363831,0.375 5.09375,0.375c18.679749,0 33.8125,-14.690369 33.8125,-32.8125c0,-18.122131 -15.132751,-32.84375 -33.8125,-32.84375c-3.342529,0 -6.574524,0.497833 -9.625,1.375c-10.065552,-11.865021 -25.114868,-20.090813 -42.3125,-22.09375c-3.517822,-40.081909 -38.84906,-71.593765 -81.906219,-71.593758z" stroke-dashoffset="0" stroke-miterlimit="4" stroke-width="2.587" stroke="#013a81" fill-rule="nonzero" fill="#ffffff"/>
  <path id="path6438" d="m241.399948,49.29776c-34.289673,0.102551 -67.813812,23.007568 -78.46875,55.71875c-15.509033,-7.864777 -36.341309,1.233398 -41.375,17.78125c-0.824631,2.509308 -1.365997,5.14003 -1.5,7.781265c-24.332657,-4.285233 -53.110275,3.677795 -66.15625,25.875c-8.725788,14.482056 -4.484867,34.126038 7.937504,45.0625c20.145046,19.158813 53.128872,21.182617 77.281246,9.8125c7.835907,20.926758 33.259186,32.765808 54.40625,25.0625c6.734863,-2.178955 12.871033,-6.496033 17.75,-11.3125c18.137146,8.749023 41.098389,7.194458 57.468765,-4.65625c26.258301,26.371216 74.153442,25.297913 98.84375,-2.65625c2.94873,-2.013733 3.790894,-7.903809 8.09375,-6.5625c19.944641,1.383972 38.725037,-16.468811 37.125,-36.625c-0.652344,-20.760193 -22.112244,-36.666016 -42.25,-32.40625c-4.153381,1.720947 -5.744385,-4.419556 -9.15625,-5.96875c-9.656738,-8.483887 -22.474915,-13.106583 -34.5,-15.437515c-3.664917,-36.200752 -34.977417,-65.816971 -70.583374,-70.518661c-4.920731,-0.745209 -9.9272,-1.065357 -14.916641,-0.950089z" stroke-dashoffset="0" stroke-miterlimit="4" stroke-width="5.587" stroke="#000000" fill-rule="nonzero" fill="#ffffff"/>
 </g>
</svg>