<?xml version="1.0" encoding="UTF-8"?>
<svg width="18px" height="30px" viewBox="0 0 171 489" version="1.1" xmlns="http://www.w3.org/2000/svg" xmlns:xlink="http://www.w3.org/1999/xlink">
    <!-- Generator: Sketch 41.2 (35397) - http://www.bohemiancoding.com/sketch -->
    <title>info</title>
    <desc>Created with Sketch.</desc>
    <defs></defs>
    <g id="Page-1" stroke="none" stroke-width="1" fill="none" fill-rule="evenodd">
        <g id="info" fill="#54CA6F">
            <g id="Capa_1">
                <path d="M80.15,0 C112.05,0 137.85,25.8 137.85,57.7 C137.85,89.6 112.05,115.4 80.15,115.4 C48.25,115.4 22.45,89.6 22.45,57.7 C22.45,25.8 48.25,0 80.15,0 Z M132.65,151.6 L131.15,151.6 L38.35,151.6 L34.95,151.6 C15.95,151.6 0.65,167 0.65,185.9 L0.65,185.9 C0.65,204.9 16.05,220.2 34.95,220.2 L38.35,220.2 L38.35,420.2 L0.65,420.2 L0.65,488.9 L170.25,488.9 L170.25,420.2 L132.75,420.2 L132.75,151.6 L132.65,151.6 Z" id="Shape"></path>
            </g>
        </g>
    </g>
</svg>