<?xml version="1.0" encoding="UTF-8" standalone="no"?>
<svg width="29px" height="37px" viewBox="0 0 29 37" version="1.1" xmlns="http://www.w3.org/2000/svg" xmlns:xlink="http://www.w3.org/1999/xlink">
    <!-- Generator: Sketch 41.2 (35397) - http://www.bohemiancoding.com/sketch -->
    <title>lightbulb</title>
    <desc>Created with Sketch.</desc>
    <defs></defs>
    <g id="Page-1" stroke="none" stroke-width="1" fill="none" fill-rule="evenodd">
        <g id="Assets-&amp;-Colors" transform="translate(-587.000000, -854.000000)" fill="#FFE234">
            <g id="lightbulb" transform="translate(587.000000, 854.000000)">
                <g id="Page-1">
                    <g>
                        <g id="Tutoring-System">
                            <g id="Hint">
                                <g id="lightbulb">
                                    <g id="Layer_1">
                                        <g id="Group">
                                            <path d="M0.399961877,13.0943692 L3.68002346,13.999486 C3.7218651,14.0109836 3.7636217,14.0163435 3.80495308,14.0163435 C4.0139912,14.0163435 4.20602053,13.8747407 4.26342522,13.6591379 C4.33222581,13.401521 4.18246334,13.1359509 3.92903226,13.066014 L0.648970674,12.1608972 C0.396390029,12.0909603 0.134709677,12.2431963 0.065483871,12.5008131 C-0.00323167155,12.7588621 0.146105572,13.0244322 0.399961877,13.0943692 Z" id="Shape"></path>
                                            <path d="M14.5238123,4.41026168 C14.7758827,4.39746729 14.977522,4.18895327 14.9766716,3.92960748 L14.9653607,0.474516355 C14.9645103,0.220443925 14.7611701,0.0212663551 14.5238123,0 C14.2865396,0.0212663551 14.0831994,0.220443925 14.0822639,0.474516355 L14.0709531,3.92960748 C14.0701026,4.18852103 14.2717419,4.3969486 14.5238123,4.41026168 Z" id="Shape"></path>
                                            <path d="M5.53925513,9.16744159 C5.62855132,9.24446729 5.73783284,9.28164019 5.84575367,9.28164019 C5.98156891,9.28164019 6.11568328,9.22320093 6.20931672,9.11038551 C6.37872434,8.90636682 6.3538915,8.60137617 6.15318768,8.42917056 L3.55679472,6.19974766 C3.35515543,6.02667757 3.05520528,6.05364953 2.88664809,6.25732243 C2.71724047,6.46134112 2.74207331,6.76633178 2.94277713,6.93853738 L5.53925513,9.16744159 Z" id="Shape"></path>
                                            <path d="M24.7841994,13.6595701 C24.8416891,13.8746542 25.0337185,14.0167757 25.2426716,14.0167757 C25.2840029,14.0167757 25.3258446,14.0115023 25.3676012,13.9999182 L28.6476628,13.0948014 C28.9015191,13.0248645 29.0508563,12.7592944 28.9820557,12.5016776 C28.9128299,12.2436285 28.6511496,12.0918248 28.3985689,12.1617617 L25.1185073,13.0668785 C24.8651613,13.1363832 24.7153988,13.4019533 24.7841994,13.6595701 Z" id="Shape"></path>
                                            <path d="M19.1820117,5.82309112 C19.2464751,5.85317523 19.3148504,5.86778505 19.3814399,5.86778505 C19.5613079,5.86778505 19.7332669,5.76378738 19.8133783,5.58674065 L21.2393959,2.45081776 C21.3499531,2.20824299 21.2459443,1.9209743 21.0077361,1.80902336 C20.7691026,1.69664019 20.4865015,1.80279907 20.3763695,2.04494159 L18.9503519,5.18129673 C18.8397947,5.4238715 18.9438886,5.71105374 19.1820117,5.82309112 Z" id="Shape"></path>
                                            <path d="M23.2014457,9.28164019 C23.3098768,9.28164019 23.4187331,9.24446729 23.5079443,9.16744159 L26.1044223,6.93801869 C26.3051261,6.76581308 26.3299589,6.46047664 26.1605513,6.25680374 C25.9920792,6.05321729 25.692044,6.02624533 25.4899795,6.19922897 L22.8935865,8.42873832 C22.6928827,8.60094393 22.6676246,8.90628037 22.8374575,9.10995327 C22.9319413,9.22328738 23.0660557,9.28164019 23.2014457,9.28164019 Z" id="Shape"></path>
                                            <path d="M9.23433138,5.5871729 C9.31486804,5.76421963 9.48640176,5.86821729 9.66626979,5.86821729 C9.73285924,5.86821729 9.80080938,5.85360748 9.86569795,5.82352336 C10.1039062,5.71157243 10.207915,5.4238715 10.0973578,5.18172897 L8.67134018,2.04537383 C8.56120821,1.80323131 8.27903226,1.69707243 8.03997361,1.80945561 C7.8017654,1.92140654 7.6977566,2.20867523 7.80831378,2.45125 L9.23433138,5.5871729 Z" id="Shape"></path>
                                            <path d="M25.9328886,24.9109416 L23.1418299,22.9381846 C22.925393,22.7859486 22.6293548,22.8394603 22.4795073,23.0590397 C22.3293196,23.2781005 22.3828123,23.5795467 22.5983988,23.7317827 L25.3894575,25.7045397 C25.4726305,25.762979 25.5671144,25.7912477 25.6607478,25.7912477 C25.8113607,25.7912477 25.9594223,25.7186308 26.0517801,25.5836846 C26.2019677,25.3646238 26.14839,25.0631776 25.9328886,24.9109416 Z" id="Shape"></path>
                                            <path d="M14.5238123,6.07846028 C9.54686804,6.07846028 5.51229619,10.1797547 5.51229619,15.2388995 C5.51229619,20.2528318 7.52095015,21.7196916 9.52169501,24.5657523 C10.840132,26.4410818 10.840132,28.5586402 10.840132,28.5586402 L10.840132,32.8914439 L18.2053666,32.8914439 L18.2053666,28.5586402 L18.2075777,28.5586402 C18.2075777,28.5586402 18.2053666,26.440736 19.5260147,24.5657523 C21.5293959,21.721507 23.5354135,20.2529182 23.5354135,15.2388995 C23.5354135,10.1797547 19.5007566,6.07846028 14.5238123,6.07846028 Z M15.4077595,24.3230911 L13.6294897,24.3230911 L13.6294897,20.582979 C13.6294897,19.9513855 13.4152639,19.2834836 13.2075865,18.6371939 C12.9607038,17.8688388 12.7059971,17.0742897 12.9772874,16.6940888 C13.1745044,16.4174533 13.7096862,16.2713551 14.5238974,16.2713551 C15.3403196,16.2713551 15.874566,16.4156379 16.0688065,16.6882967 C16.3322727,17.0582967 16.0788416,17.8409159 15.8336598,18.5977734 C15.6216452,19.2537453 15.4021466,19.9322804 15.4021466,20.5824603 C15.4020616,21.3930023 15.4046979,22.8634065 15.4077595,24.3230911 Z M18.658651,23.9345047 C17.7660293,25.2017547 17.398129,26.559257 17.2465806,27.4745748 L17.0493636,27.4745748 L17.0493636,25.7740444 C17.0493636,25.174264 16.6909883,24.6595491 16.1797889,24.4386729 C16.1767273,22.941729 16.1736657,21.4147009 16.1736657,20.5830654 C16.1736657,20.0585818 16.3735191,19.4406472 16.566824,18.8435467 C16.8724721,17.8994416 17.1881554,16.9230047 16.6935396,16.2285631 C16.3334633,15.7226659 15.6437566,15.4867477 14.5233871,15.4867477 C13.4052287,15.4867477 12.715522,15.7239626 12.3519589,16.232972 C11.8499443,16.93675 12.1669032,17.9251168 12.4734018,18.8802874 C12.6623695,19.4685701 12.8574604,20.0762173 12.8574604,20.5830654 L12.8574604,24.4440327 C12.3519589,24.6671565 11.9979208,25.1783271 11.9979208,25.7741308 L11.9979208,27.4746612 L11.8001935,27.4746612 C11.6482199,26.5602079 11.2803196,25.2027056 10.3893988,23.9354556 C10.0067009,23.3910023 9.63004106,22.9036916 9.26596774,22.4322874 C7.70583578,20.4131075 6.57891789,18.9542009 6.57891789,15.2393318 C6.57891789,10.7861916 10.1428563,7.16330374 14.5237273,7.16330374 C18.9045132,7.16330374 22.4684516,10.7861051 22.4684516,15.2393318 C22.4684516,18.9586098 21.3398328,20.4183808 19.7774897,22.4393762 C19.4149472,22.9081005 19.0400733,23.3931636 18.658651,23.9345047 Z" id="Shape"></path>
                                            <path d="M28.5563255,18.8138949 L25.2070381,18.2251799 C24.9488446,18.1796215 24.7015367,18.356236 24.6570587,18.6191262 C24.6126657,18.8820164 24.7859853,19.1325444 25.0446041,19.1781893 L28.3938915,19.7669042 C28.4213607,19.7717453 28.4487449,19.7744252 28.4757889,19.7744252 C28.7031114,19.7744252 28.9042405,19.6080117 28.943871,19.3729579 C28.9882639,19.1095491 28.8149443,18.8594533 28.5563255,18.8138949 Z" id="Shape"></path>
                                            <path d="M14.5238123,36.9620491 C15.5191672,36.9620491 16.3264897,36.141479 16.3264897,35.1295981 L12.7211349,35.1295981 C12.7212199,36.1419112 13.5284575,36.9620491 14.5238123,36.9620491 Z" id="Shape"></path>
                                            <path d="M5.90587977,22.9381846 L3.11482111,24.9105093 C2.89931965,25.0631776 2.84574194,25.3641916 2.99592962,25.5832523 C3.08820235,25.7187173 3.23668915,25.7908154 3.38696188,25.7908154 C3.48102053,25.7908154 3.57507918,25.7624603 3.6582522,25.7041075 L6.44931085,23.7313505 C6.66481232,23.5791145 6.71839003,23.2776682 6.56820235,23.0586075 C6.41843988,22.8394603 6.12231672,22.7863808 5.90587977,22.9381846 Z" id="Shape"></path>
                                            <path d="M4.39065103,18.6191262 C4.34625806,18.356236 4.09895015,18.1796215 3.84067155,18.2251799 L0.491384164,18.8138949 C0.232765396,18.8594533 0.0594457478,19.1095491 0.10383871,19.3729579 C0.143894428,19.6080117 0.34502346,19.7744252 0.571920821,19.7744252 C0.598879765,19.7744252 0.626348974,19.7721776 0.653818182,19.7669042 L4.00310557,19.1781893 C4.26214956,19.1321121 4.43546921,18.8820164 4.39065103,18.6191262 Z" id="Shape"></path>
                                        </g>
                                    </g>
                                </g>
                            </g>
                        </g>
                    </g>
                </g>
            </g>
        </g>
    </g>
</svg>