<?xml version="1.0" encoding="UTF-8"?>
<svg width="26px" height="29px" viewBox="0 0 26 29" version="1.1" xmlns="http://www.w3.org/2000/svg" xmlns:xlink="http://www.w3.org/1999/xlink">
    <!-- Generator: Sketch 41.2 (35397) - http://www.bohemiancoding.com/sketch -->
    <title>reload</title>
    <desc>Created with Sketch.</desc>
    <defs></defs>
    <g id="Page-1" stroke="none" stroke-width="1" fill="none" fill-rule="evenodd">
        <g id="Tutoring-System" transform="translate(-348.000000, -799.000000)" fill="#2ECC71">
            <g id="Replay-Hint" transform="translate(336.000000, 786.000000)">
                <g id="reload" transform="translate(12.000000, 13.000000)">
                    <g id="Capa_1">
                        <g id="Group">
                            <path d="M5.33642762,5.74738571 C9.52306459,1.87677347 15.7885434,1.8175898 20.0330869,5.3508551 L16.6687216,5.48105918 C16.2344232,5.49881429 15.8985657,5.86575306 15.9159376,6.30963061 C15.9333096,6.74167143 16.2807483,7.07901837 16.6976748,7.07901837 L16.7266281,7.07901837 L21.8918842,6.88371224 C22.3146013,6.86595714 22.6446682,6.51677347 22.6446682,6.08473265 L22.6446682,6.02554898 L22.6446682,5.99595714 L22.6446682,5.99003878 L22.6446682,5.99003878 L22.4535768,0.770038776 C22.4362049,0.326161224 22.0713942,-0.0171040816 21.6428864,0.000651020408 C21.208588,0.0184061224 20.8727305,0.385344898 20.8901024,0.829222449 L21.011706,4.10207959 C18.9097016,2.34432449 16.3212829,1.32636531 13.5533541,1.18432449 C10.1252918,1.00677347 6.83041425,2.20820204 4.28832071,4.56371224 C0.790770601,7.80105918 -0.691634744,12.7251408 0.420169265,17.4124878 C0.507028953,17.7794265 0.825514477,18.0220796 1.17874388,18.0220796 C1.24244098,18.0220796 1.30034744,18.0161612 1.36404454,17.9984061 C1.78097105,17.8918755 2.04155011,17.4598347 1.93731849,17.0337122 C0.964489978,12.9145286 2.26159465,8.58820204 5.33642762,5.74738571 Z" id="Shape"></path>
                            <path d="M25.6210601,11.5710592 C25.5168285,11.1449367 25.0941114,10.8786102 24.6771849,10.9851408 C24.2602584,11.0916714 23.9996793,11.5237122 24.1039109,11.9498347 C25.0825301,16.0690184 23.7796347,20.3953449 20.7048018,23.2361612 C18.5448909,25.230651 15.8348686,26.2131 13.1364276,26.2131 C10.5595902,26.2131 7.98854343,25.3194265 5.9154922,23.5557531 L9.32039198,23.2420796 C9.74889978,23.200651 10.0673853,22.8159571 10.0268508,22.3720796 C9.98631626,21.928202 9.60992428,21.6086102 9.17562584,21.6500388 L4.02774165,22.1235082 C3.59923385,22.1649367 3.28074833,22.5496306 3.32128285,22.9935082 L3.78453452,28.2549367 C3.8192784,28.6692224 4.1609265,28.9828959 4.56048107,28.9828959 C4.58364365,28.9828959 4.60680624,28.9828959 4.62996882,28.9769776 C5.05847661,28.935549 5.37696214,28.5508551 5.33642762,28.1069776 L5.05847661,24.9051408 C7.16048107,26.6451408 9.73731849,27.6571816 12.4878753,27.7992224 C12.7079198,27.8110592 12.9279644,27.8169776 13.1422183,27.8169776 C16.3328641,27.8169776 19.3671626,26.6214673 21.7529087,24.4198347 C25.2504588,21.1824878 26.7328641,16.2643245 25.6210601,11.5710592 Z" id="Shape"></path>
                        </g>
                    </g>
                </g>
            </g>
        </g>
    </g>
</svg>