<?xml version="1.0" encoding="UTF-8"?>
<svg width="26px" height="21px" viewBox="0 0 26 21" version="1.1" xmlns="http://www.w3.org/2000/svg" xmlns:xlink="http://www.w3.org/1999/xlink">
    <!-- Generator: Sketch 41.2 (35397) - http://www.bohemiancoding.com/sketch -->
    <title>speaker</title>
    <desc>Created with Sketch.</desc>
    <defs></defs>
    <g id="Page-1" stroke="none" stroke-width="1" fill="none" fill-rule="evenodd">
        <g id="speaker" fill="#2ECC71">
            <g id="Page-1">
                <g id="Tutoring-System">
                    <g id="Read">
                        <g id="speaker">
                            <g id="Capa_1">
                                <g id="Group">
                                    <path d="M12.3084,0.769125 C11.8859,0.527625 11.3849667,0.5355 10.9694,0.788375 C10.9494667,0.8001875 10.9304,0.8141875 10.9130667,0.8290625 L5.0414,5.844125 L0.433333333,5.844125 C0.1937,5.844125 0,6.0396875 0,6.281625 L0,14.594125 C0,14.7105 0.0455,14.821625 0.126966667,14.9034375 C0.208433333,14.98525 0.318066667,15.031625 0.433333333,15.031625 L5.031,15.0294375 L10.8996333,20.4719375 C10.9213,20.4920625 10.9447,20.5095625 10.9694,20.5244375 C11.1826,20.654375 11.4187667,20.7195625 11.6549333,20.7195625 C11.8789667,20.719125 12.1025667,20.6609375 12.3084,20.5436875 C12.7413,20.2969375 13,19.8463125 13,19.3379375 L13,1.974875 C13,1.4669375 12.7413,1.0163125 12.3084,0.769125 Z" id="Shape"></path>
                                    <path d="M22.5446,10.437875 C22.5446,6.7860625 20.241,3.542875 16.8120333,2.3673125 C16.5858333,2.289875 16.3392667,2.412375 16.2621333,2.6411875 C16.1854333,2.8695625 16.3067667,3.1185 16.5334,3.196375 C19.6105,4.2511875 21.6779333,7.1614375 21.6779333,10.4383125 C21.6779333,13.712125 19.6144,16.6228125 16.5433667,17.6806875 C16.3171667,17.7585625 16.1958333,18.0070625 16.2734,18.2363125 C16.3349333,18.417875 16.5030667,18.5325 16.6833333,18.5325 C16.7297,18.5325 16.7769333,18.5250625 16.8233,18.508875 C20.2457667,17.3298125 22.5446,14.086625 22.5446,10.437875 Z" id="Shape"></path>
                                    <path d="M19.2629667,0.163625 C19.0428333,0.0704375 18.7884667,0.1728125 18.6944333,0.3955 C18.6012667,0.6181875 18.7039667,0.875 18.9245333,0.9695 C22.6962667,2.5851875 25.1333333,6.3021875 25.1333333,10.437875 C25.1333333,14.7153125 22.5792667,18.479125 18.6268333,20.02525 C18.4036667,20.11275 18.2927333,20.3660625 18.3794,20.591375 C18.4457,20.764625 18.6099333,20.8709375 18.7837,20.8709375 C18.8357,20.8709375 18.8885667,20.86175 18.9401333,20.841625 C23.2288333,19.1629375 26,15.0793125 26,10.437875 C26,5.95 23.3553667,1.917125 19.2629667,0.163625 Z" id="Shape"></path>
                                    <path d="M18.6446,10.437875 C18.6446,7.825125 16.9073667,5.49325 14.4200333,4.767 C14.1903667,4.7009375 13.9503,4.8335 13.8835667,5.06625 C13.8172667,5.298125 13.9494333,5.5409375 14.1799667,5.607875 C16.2985333,6.2260625 17.7783667,8.2123125 17.7783667,10.437875 C17.7783667,12.6634375 16.2985333,14.6496875 14.1799667,15.267875 C13.9498667,15.3348125 13.8172667,15.577625 13.8835667,15.8095 C13.9386,16.001125 14.1115,16.1258125 14.3,16.1258125 C14.3398667,16.1258125 14.3801667,16.120125 14.4200333,16.10875 C16.9078,15.3820625 18.6446,13.0501875 18.6446,10.437875 Z" id="Shape"></path>
                                </g>
                            </g>
                        </g>
                    </g>
                </g>
            </g>
        </g>
    </g>
</svg>